<svg width="314" height="289" viewBox="0 0 314 289" fill="none" xmlns="http://www.w3.org/2000/svg">
<path d="M72.625 175.75C72.625 178.925 70.0555 181.5 66.875 181.5C63.6945 181.5 61.125 178.925 61.125 175.75C61.125 172.575 63.6945 170 66.875 170C70.0555 170 72.625 172.575 72.625 175.75ZM46.75 184.375C46.75 181.2 49.3195 178.625 52.5 178.625C55.6805 178.625 58.25 181.2 58.25 184.375C58.25 187.55 55.6805 190.125 52.5 190.125C49.3195 190.125 46.75 187.55 46.75 184.375ZM46.75 193C49.9305 193 52.5 195.57 52.5 198.75H53.9375C56.3273 198.75 58.25 200.673 58.25 203.062V205.938C58.25 206.243 58.2141 206.548 58.1602 206.854C68.3664 211.256 75.5 221.427 75.5 233.25C75.5 249.134 62.6344 262 46.75 262C30.871 262 18 249.134 18 233.25C18 221.427 25.1408 211.256 35.347 206.854C35.2841 206.548 35.25 206.243 35.25 205.938V203.062C35.25 200.673 37.1727 198.75 39.5625 198.75H41C41 195.57 43.5695 193 46.75 193ZM46.75 250.5C56.2734 250.5 64 242.773 64 233.25C64 223.565 56.2734 216 46.75 216C37.0648 216 29.5 223.565 29.5 233.25C29.5 242.773 37.0648 250.5 46.75 250.5ZM78.6625 220.115C81.6992 214.221 86.7305 209.495 92.8398 206.854C92.7859 206.548 92.75 206.243 92.75 205.776V202.901C92.75 200.673 94.6727 198.588 97.0625 198.588H98.5C98.5 195.57 101.07 192.838 104.25 192.838C107.43 192.838 110 195.57 110 198.588H111.438C113.827 198.588 115.75 200.673 115.75 202.901V205.776C115.75 206.243 115.714 206.548 115.66 206.854C125.866 211.256 133 221.427 133 233.25C133 249.134 120.134 262 104.25 262C92.9477 262 83.4422 255.657 78.6625 246.385C80.3336 242.324 81.25 237.904 81.25 233.25C81.25 228.596 80.3336 224.176 78.6625 220.115ZM104.25 216C94.5648 216 87 223.565 87 233.25C87 242.773 94.5648 250.5 104.25 250.5C113.773 250.5 121.5 242.773 121.5 233.25C121.5 223.565 113.773 216 104.25 216ZM78.375 175.75C78.375 172.575 80.9445 170 84.125 170C87.3055 170 89.875 172.575 89.875 175.75C89.875 178.925 87.3055 181.5 84.125 181.5C80.9445 181.5 78.375 178.925 78.375 175.75ZM92.75 184.375C92.75 181.2 95.3195 178.625 98.5 178.625C101.68 178.625 104.25 181.2 104.25 184.375C104.25 187.55 101.68 190.125 98.5 190.125C95.3195 190.125 92.75 187.55 92.75 184.375Z" fill="url(#paint0_linear_8_11)"/>
<path d="M277.2 169H182.8C176.292 169 171 174.214 171 180.625V250.375C171 256.786 176.292 262 182.8 262H277.2C283.708 262 289 256.786 289 250.375V180.625C289 174.214 283.708 169 277.2 169ZM210.619 192.25C217.409 192.25 222.419 197.185 222.419 203.875C222.419 210.565 217.409 215.5 210.619 215.5C203.828 215.5 198.819 210.565 198.819 203.875C198.819 197.185 203.822 192.25 210.619 192.25ZM232.537 238.75H188.7V236.047C188.7 228.067 198.588 219.859 210.619 219.859C222.649 219.859 232.537 228.067 232.537 236.047V238.75ZM271.3 232.938H247.7V221.312H271.3V232.938ZM271.3 209.688H241.8V198.062H271.3V209.688Z" fill="url(#paint1_linear_8_11)"/>
<path d="M31.75 15C27.8381 15 24.0863 16.554 21.3202 19.3202C18.554 22.0863 17 25.8381 17 29.75L17 118.25C17 122.162 18.554 125.914 21.3202 128.68C24.0863 131.446 27.8381 133 31.75 133H120.25C124.162 133 127.914 131.446 130.68 128.68C133.446 125.914 135 122.162 135 118.25V29.75C135 25.8381 133.446 22.0863 130.68 19.3202C127.914 16.554 124.162 15 120.25 15H31.75ZM57.533 59.4934C57.2953 59.4966 57.0594 59.4513 56.8398 59.3602C56.6202 59.2691 56.4214 59.1342 56.2557 58.9637C56.0901 58.7932 55.9609 58.5907 55.8762 58.3685C55.7915 58.1464 55.7529 57.9093 55.763 57.6717C56.4563 45.1711 66.6854 40.8125 76.0369 40.8125C86.3324 40.8125 95.7429 46.1962 95.7429 57.3325C95.7429 65.2975 91.0597 69.0882 86.5684 72.5029C81.133 76.6255 79.1196 78.1669 79.1196 83.4621V84.2365C79.1196 84.7255 78.9254 85.1945 78.5796 85.5402C78.2338 85.886 77.7649 86.0802 77.2759 86.0802H71.3021C70.8182 86.0803 70.3537 85.8901 70.0087 85.5507C69.6638 85.2113 69.4661 84.7499 69.4584 84.266L69.4289 82.6656C69.1486 75.829 73.0795 71.6179 78.0429 68.0115C82.3941 64.737 85.1597 62.5835 85.1597 57.9004C85.1597 51.816 80.5282 49.2864 75.469 49.2864C69.5469 49.2864 66.2281 52.8116 65.5717 57.6496C65.439 58.66 64.6278 59.4934 63.61 59.4934H57.5256H57.533ZM74.6799 107.01C70.3729 107.01 67.2385 104.105 67.2385 100.174C67.2385 96.1029 70.3729 93.2414 74.6873 93.2414C79.1786 93.2414 82.2688 96.1029 82.2688 100.174C82.2688 104.105 79.1713 107.01 74.6799 107.01V107.01Z" fill="url(#paint2_linear_8_11)"/>
<path d="M203.385 82H203.31M278 22V142V22ZM248.154 22V142V22ZM188.462 22V59.5V22ZM188.462 104.5V142V104.5ZM218.308 22V59.5V22ZM225.769 59.5H181V104.5H225.769V59.5ZM218.308 104.5V142V104.5Z" stroke="url(#paint3_linear_8_11)" stroke-width="14" stroke-linecap="round" stroke-linejoin="round"/>
<defs>
<linearGradient id="paint0_linear_8_11" x1="18.0118" y1="169.959" x2="152.073" y2="271.592" gradientUnits="userSpaceOnUse">
<stop stop-color="#DDE4FF" stop-opacity="0.02"/>
<stop offset="1" stop-color="#DCE4FF" stop-opacity="0"/>
</linearGradient>
<linearGradient id="paint1_linear_8_11" x1="171.012" y1="168.958" x2="307.065" y2="273.654" gradientUnits="userSpaceOnUse">
<stop stop-color="#DDE4FF" stop-opacity="0.02"/>
<stop offset="1" stop-color="#DCE4FF" stop-opacity="0"/>
</linearGradient>
<linearGradient id="paint2_linear_8_11" x1="17.0122" y1="14.9473" x2="175.379" y2="110.995" gradientUnits="userSpaceOnUse">
<stop stop-color="#DDE4FF" stop-opacity="0.02"/>
<stop offset="1" stop-color="#DCE4FF" stop-opacity="0"/>
</linearGradient>
<linearGradient id="paint3_linear_8_11" x1="181.01" y1="21.9465" x2="324.573" y2="92.3276" gradientUnits="userSpaceOnUse">
<stop stop-color="#DDE4FF" stop-opacity="0.02"/>
<stop offset="1" stop-color="#DCE4FF" stop-opacity="0"/>
</linearGradient>
</defs>
</svg>
