<svg width="500" height="500" viewBox="0 0 500 500" fill="none" xmlns="http://www.w3.org/2000/svg">
<path d="M164.375 137C156.849 137 149.632 139.99 144.311 145.311C138.99 150.632 136 157.849 136 165.375V335.625C136 343.151 138.99 350.368 144.311 355.689C149.632 361.01 156.849 364 164.375 364H334.625C342.151 364 349.368 361.01 354.689 355.689C360.01 350.368 363 343.151 363 335.625V165.375C363 157.849 360.01 150.632 354.689 145.311C349.368 139.99 342.151 137 334.625 137H164.375ZM213.974 222.593C213.517 222.599 213.063 222.512 212.641 222.337C212.218 222.162 211.836 221.902 211.517 221.574C211.199 221.246 210.95 220.857 210.787 220.429C210.624 220.002 210.55 219.546 210.57 219.089C211.903 195.041 231.581 186.656 249.571 186.656C269.377 186.656 287.48 197.013 287.48 218.436C287.48 233.759 278.471 241.051 269.831 247.62C259.374 255.551 255.501 258.516 255.501 268.703V270.192C255.501 271.133 255.128 272.035 254.462 272.7C253.797 273.365 252.895 273.739 251.954 273.739H240.463C239.532 273.739 238.638 273.373 237.974 272.72C237.311 272.067 236.931 271.18 236.916 270.249L236.859 267.17C236.32 254.019 243.882 245.917 253.43 238.98C261.801 232.681 267.121 228.538 267.121 219.529C267.121 207.824 258.211 202.958 248.478 202.958C237.086 202.958 230.702 209.739 229.439 219.046C229.183 220.99 227.623 222.593 225.665 222.593H213.96H213.974ZM246.96 314.003C238.675 314.003 232.645 308.413 232.645 300.851C232.645 293.02 238.675 287.515 246.975 287.515C255.615 287.515 261.559 293.02 261.559 300.851C261.559 308.413 255.601 314.003 246.96 314.003V314.003Z" fill="url(#paint0_linear_2_23)"/>
<defs>
<linearGradient id="paint0_linear_2_23" x1="150.5" y1="155.5" x2="439" y2="394.5" gradientUnits="userSpaceOnUse">
<stop stop-color="#2353FF"/>
<stop offset="1" stop-opacity="0"/>
</linearGradient>
</defs>
</svg>
