<svg width="500" height="500" viewBox="0 0 500 500" fill="none" xmlns="http://www.w3.org/2000/svg">
<path d="M250 167.009C282.736 154.336 310.636 148 333.7 148C360.832 148 386.852 158.799 406.037 178.022C425.222 197.244 436 223.315 436 250.5C436 277.685 425.222 303.756 406.037 322.978C386.852 342.201 360.832 353 333.7 353C310.636 353 282.736 346.44 250 333.301C217.264 346.44 189.364 353 166.3 353C139.168 353 113.148 342.201 93.963 322.978C74.778 303.756 64 277.685 64 250.5C64 223.315 74.778 197.244 93.963 178.022C113.148 158.799 139.168 148 166.3 148C189.364 148 217.264 154.336 250 167.009V167.009ZM175.6 278.455C196.153 278.455 212.8 265.931 212.8 250.5C212.8 235.05 196.153 222.545 175.6 222.545C155.047 222.545 138.4 235.05 138.4 250.5C138.4 265.931 155.047 278.455 175.6 278.455ZM324.4 278.455C344.953 278.455 361.6 265.931 361.6 250.5C361.6 235.05 344.953 222.545 324.4 222.545C303.847 222.545 287.2 235.05 287.2 250.5C287.2 265.931 303.847 278.455 324.4 278.455Z" fill="url(#paint0_linear_2_5)"/>
<defs>
<linearGradient id="paint0_linear_2_5" x1="64" y1="129" x2="585.5" y2="437.5" gradientUnits="userSpaceOnUse">
<stop stop-color="#2353FF"/>
<stop offset="1" stop-opacity="0"/>
</linearGradient>
</defs>
</svg>
