<svg width="500" height="500" viewBox="0 0 500 500" fill="none" xmlns="http://www.w3.org/2000/svg">
<path d="M346 154H154C140.764 154 130 164.764 130 178V322C130 335.236 140.764 346 154 346H346C359.236 346 370 335.236 370 322V178C370 164.764 359.236 154 346 154ZM210.58 202C224.392 202 234.58 212.188 234.58 226C234.58 239.812 224.392 250 210.58 250C196.768 250 186.58 239.812 186.58 226C186.58 212.188 196.756 202 210.58 202ZM255.16 298H166V292.42C166 275.944 186.112 259 210.58 259C235.048 259 255.16 275.944 255.16 292.42V298ZM334 286H286V262H334V286ZM334 238H274V214H334V238Z" fill="url(#paint0_linear_2_13)"/>
<defs>
<linearGradient id="paint0_linear_2_13" x1="144.5" y1="154" x2="477" y2="381" gradientUnits="userSpaceOnUse">
<stop stop-color="#2353FF"/>
<stop offset="1" stop-opacity="0"/>
</linearGradient>
</defs>
</svg>
