<svg width="500" height="500" viewBox="0 0 500 500" fill="none" xmlns="http://www.w3.org/2000/svg">
<path d="M240.503 110.945C240.503 121.881 231.634 130.75 220.656 130.75C209.678 130.75 200.809 121.881 200.809 110.945C200.809 100.01 209.678 91.1414 220.656 91.1414C231.634 91.1414 240.503 100.01 240.503 110.945ZM151.193 140.652C151.193 129.716 160.061 120.848 171.039 120.848C182.017 120.848 190.886 129.716 190.886 140.652C190.886 151.587 182.017 160.456 171.039 160.456C160.061 160.456 151.193 151.587 151.193 140.652ZM151.193 170.358C162.17 170.358 171.039 179.208 171.039 190.162H176.001C184.25 190.162 190.886 196.784 190.886 205.015V214.917C190.886 215.969 190.762 217.021 190.576 218.073C225.804 233.236 250.426 268.264 250.426 308.986C250.426 363.695 206.019 408.007 151.193 408.007C96.3847 408.007 51.9591 363.695 51.9591 308.986C51.9591 268.264 76.6062 233.236 111.834 218.073C111.617 217.021 111.499 215.969 111.499 214.917V205.015C111.499 196.784 118.135 190.162 126.384 190.162H131.346C131.346 179.208 140.215 170.358 151.193 170.358ZM151.193 368.399C184.064 368.399 210.733 341.787 210.733 308.986C210.733 275.629 184.064 249.574 151.193 249.574C117.763 249.574 91.6525 275.629 91.6525 308.986C91.6525 341.787 117.763 368.399 151.193 368.399ZM261.342 263.746C271.823 243.447 289.189 227.171 310.276 218.073C310.09 217.021 309.966 215.969 309.966 214.36V204.458C309.966 196.784 316.602 189.605 324.851 189.605H329.813C329.813 179.208 338.682 169.801 349.659 169.801C360.637 169.801 369.506 179.208 369.506 189.605H374.468C382.716 189.605 389.353 196.784 389.353 204.458V214.36C389.353 215.969 389.229 217.021 389.043 218.073C424.27 233.236 448.893 268.264 448.893 308.986C448.893 363.695 404.486 408.007 349.659 408.007C310.648 408.007 277.839 386.16 261.342 354.226C267.11 340.24 270.273 325.015 270.273 308.986C270.273 292.957 267.11 277.733 261.342 263.746ZM349.659 249.574C316.23 249.574 290.119 275.629 290.119 308.986C290.119 341.787 316.23 368.399 349.659 368.399C382.53 368.399 409.199 341.787 409.199 308.986C409.199 275.629 382.53 249.574 349.659 249.574ZM260.349 110.945C260.349 100.01 269.218 91.1414 280.196 91.1414C291.174 91.1414 300.043 100.01 300.043 110.945C300.043 121.881 291.174 130.75 280.196 130.75C269.218 130.75 260.349 121.881 260.349 110.945ZM309.966 140.652C309.966 129.716 318.835 120.848 329.813 120.848C340.79 120.848 349.659 129.716 349.659 140.652C349.659 151.587 340.79 160.456 329.813 160.456C318.835 160.456 309.966 151.587 309.966 140.652Z" fill="url(#paint0_linear_2_4)"/>
<defs>
<linearGradient id="paint0_linear_2_4" x1="52" y1="91" x2="514" y2="442" gradientUnits="userSpaceOnUse">
<stop stop-color="#DDE4FF"/>
<stop offset="1" stop-color="#DCE4FF" stop-opacity="0"/>
</linearGradient>
</defs>
</svg>
