<svg width="500" height="500" viewBox="0 0 500 500" fill="none" xmlns="http://www.w3.org/2000/svg">
<path d="M231.935 207.162L214.119 223.52C216.455 231.754 219.743 239.688 223.916 247.159C228.248 254.545 233.473 261.368 239.473 267.474L262.502 260.209C268.815 258.217 275.579 258.159 281.925 260.043C288.271 261.927 293.909 265.666 298.117 270.782L312.064 287.755C317.168 293.957 319.718 301.874 319.193 309.893C318.669 317.912 315.11 325.428 309.242 330.911C287.325 351.358 253.287 356.778 229.478 335.067C209.642 316.898 192.693 295.803 179.219 272.511C165.7 249.398 155.915 224.29 150.229 198.118C143.487 166.616 165.388 140.1 193.896 131.389C201.636 129.022 209.987 129.698 217.246 133.281C224.506 136.864 230.127 143.084 232.965 150.673L240.586 171.004C242.909 177.211 243.327 183.97 241.786 190.416C240.244 196.861 236.814 202.699 231.935 207.178V207.162ZM342.698 140.017C344.9 140.017 347.012 140.893 348.568 142.452C350.125 144.011 351 146.125 351 148.329V214.825C351 217.03 350.125 219.144 348.568 220.703C347.012 222.262 344.9 223.137 342.698 223.137C340.496 223.137 338.385 222.262 336.828 220.703C335.271 219.144 334.396 217.03 334.396 214.825V168.394L298.765 204.086C297.206 205.647 295.092 206.524 292.887 206.524C290.683 206.524 288.568 205.647 287.009 204.086C285.451 202.525 284.575 200.409 284.575 198.201C284.575 195.994 285.451 193.877 287.009 192.316L322.658 156.641H276.284C274.082 156.641 271.97 155.766 270.413 154.207C268.856 152.648 267.982 150.534 267.982 148.329C267.982 146.125 268.856 144.011 270.413 142.452C271.97 140.893 274.082 140.017 276.284 140.017H342.698ZM284.585 214.825C284.585 217.03 283.711 219.144 282.154 220.703C280.597 222.262 278.485 223.137 276.284 223.137C274.082 223.137 271.97 222.262 270.413 220.703C268.856 219.144 267.982 217.03 267.982 214.825C267.982 212.621 268.856 210.507 270.413 208.948C271.97 207.389 274.082 206.513 276.284 206.513C278.485 206.513 280.597 207.389 282.154 208.948C283.711 210.507 284.585 212.621 284.585 214.825V214.825ZM259.68 239.761C261.882 239.761 263.993 238.886 265.55 237.327C267.107 235.768 267.982 233.654 267.982 231.449C267.982 229.245 267.107 227.131 265.55 225.572C263.993 224.013 261.882 223.137 259.68 223.137C257.478 223.137 255.366 224.013 253.81 225.572C252.253 227.131 251.378 229.245 251.378 231.449C251.378 233.654 252.253 235.768 253.81 237.327C255.366 238.886 257.478 239.761 259.68 239.761Z" fill="url(#paint0_linear_2_17)"/>
<defs>
<linearGradient id="paint0_linear_2_17" x1="178.5" y1="138.5" x2="444.5" y2="357.5" gradientUnits="userSpaceOnUse">
<stop stop-color="#2353FF"/>
<stop offset="1" stop-opacity="0"/>
</linearGradient>
</defs>
</svg>
