<svg width="500" height="500" viewBox="0 0 500 500" fill="none" xmlns="http://www.w3.org/2000/svg">
<path d="M298.951 225.412C335.979 225.412 365.601 255.014 365.601 292.018C365.601 305.043 361.898 317.329 355.382 327.542L401 373.426L380.412 394L334.202 348.56C323.982 354.924 311.837 358.625 298.951 358.625C261.923 358.625 232.301 329.022 232.301 292.018C232.301 255.014 261.923 225.412 298.951 225.412ZM298.951 255.014C289.131 255.014 279.712 258.913 272.768 265.853C265.824 272.792 261.923 282.204 261.923 292.018C261.923 301.832 265.824 311.244 272.768 318.184C279.712 325.123 289.131 329.022 298.951 329.022C308.771 329.022 318.19 325.123 325.134 318.184C332.078 311.244 335.979 301.832 335.979 292.018C335.979 282.204 332.078 272.792 325.134 265.853C318.19 258.913 308.771 255.014 298.951 255.014ZM217.489 107C233.202 107 248.271 113.238 259.382 124.341C270.492 135.444 276.734 150.503 276.734 166.206C276.734 179.675 272.143 192.108 264.589 202.173C251.851 206.91 240.447 214.458 230.968 223.931L217.489 225.412C201.777 225.412 186.708 219.174 175.597 208.071C164.487 196.967 158.245 181.908 158.245 166.206C158.245 150.503 164.487 135.444 175.597 124.341C186.708 113.238 201.777 107 217.489 107V107ZM99 343.823V314.22C99 282.841 148.025 257.087 210.084 255.014C205.344 266.56 202.678 278.993 202.678 292.018C202.678 311.112 208.307 329.022 217.489 343.823H99Z" fill="url(#paint0_linear_2_27)"/>
<defs>
<linearGradient id="paint0_linear_2_27" x1="99.0311" y1="106.872" x2="492.979" y2="358.284" gradientUnits="userSpaceOnUse">
<stop stop-color="#DDE4FF"/>
<stop offset="1" stop-color="#DCE4FF" stop-opacity="0"/>
</linearGradient>
</defs>
</svg>
